<?xml version="1.0" standalone="no"?>
<!DOCTYPE svg PUBLIC "-//W3C//DTD SVG 20010904//EN"
 "http://www.w3.org/TR/2001/REC-SVG-20010904/DTD/svg10.dtd">
<svg version="1.0" xmlns="http://www.w3.org/2000/svg"
 width="200.000000pt" height="200.000000pt" viewBox="0 0 200.000000 200.000000"
 preserveAspectRatio="xMidYMid meet">

<g transform="translate(0.000000,200.000000) scale(0.100000,-0.100000)"
fill="#000000" stroke="none">
<path d="M391 1181 c-18 -10 -44 -35 -57 -57 -21 -34 -24 -52 -24 -136 l0 -98
30 0 c21 0 30 5 30 16 0 11 5 14 18 9 67 -28 86 -28 155 0 12 5 17 2 17 -10 0
-12 7 -16 28 -13 l27 3 3 93 c2 80 0 98 -19 131 -41 73 -135 101 -208 62z"/>
<path d="M670 970 l0 -80 30 0 c26 0 30 4 30 28 l1 27 15 -27 c18 -35 55 -37
77 -5 l16 22 0 -22 c1 -19 7 -23 31 -23 l30 0 0 80 0 80 -39 0 c-30 0 -41 -5
-46 -19 -3 -11 -12 -24 -20 -31 -10 -9 -17 -5 -31 19 -15 26 -25 31 -56 31
l-38 0 0 -80z"/>
<path d="M975 980 c-19 -38 -35 -74 -35 -80 0 -13 57 -13 65 0 3 6 26 10 50
10 24 0 47 -4 50 -10 7 -11 58 -14 68 -4 3 3 -11 39 -31 80 l-36 74 -48 0 -48
0 -35 -70z m105 -32 c0 -4 -9 -8 -20 -8 -21 0 -24 8 -13 36 6 16 7 16 20 -2 7
-10 13 -21 13 -26z"/>
<path d="M1212 973 l3 -78 92 0 c82 0 95 2 115 22 31 31 30 89 -1 114 -19 16
-40 19 -118 19 l-94 0 3 -77z m153 27 c15 -17 16 -24 7 -45 -10 -21 -19 -25
-52 -25 l-40 0 0 45 c0 44 0 45 33 45 21 0 41 -8 52 -20z"/>
<path d="M1492 978 c-18 -40 -32 -76 -32 -80 0 -12 58 -10 65 2 8 13 88 13
102 -1 6 -6 25 -9 42 -7 l31 3 -37 78 -36 77 -52 0 -51 0 -32 -72z m92 -36
c-22 -5 -27 3 -19 29 l7 22 14 -24 c11 -20 10 -25 -2 -27z"/>
</g>
</svg>
